<?xml version="1.0"?>
<svg xmlns="http://www.w3.org/2000/svg"
xmlns:xlink="http://www.w3.org/1999/xlink" xmlns:cml="http://www.xml-cml.org/schema" width="288.166" height="165.84" x="0" y="0" font-family="sans-serif" stroke="rgb(0,0,0)" stroke-width="1"  stroke-linecap="round">
<rect x="0%" y="0%" width="100%" height="100%" stroke-width="0" fill="rgb(255,255,255)"  />
<line x1="75.9" y1="105.6" x2="51.3" y2="119.4" stroke="rgb(0,0,0)"  stroke-width="1.0"/>
<line x1="219.1" y1="60.2" x2="237.1" y2="49.0" stroke="rgb(0,0,0)"  stroke-width="1.0"/>
<line x1="123.4" y1="115.3" x2="147.6" y2="103.7" stroke="rgb(0,0,0)"  stroke-width="1.0"/>
<line x1="99.8" y1="115.9" x2="75.9" y2="105.6" stroke="rgb(0,0,0)"  stroke-width="1.0"/>
<line x1="77.8" y1="84.3" x2="78.9" y2="105.4" stroke="rgb(0,0,0)"  stroke-width="1.0"/>
<line x1="71.8" y1="84.6" x2="72.9" y2="105.7" stroke="rgb(0,0,0)"  stroke-width="1.0"/>
<line x1="181.7" y1="40.0" x2="146.9" y2="61.5" stroke="rgb(0,0,0)"  stroke-width="1.0"/>
<line x1="180.4" y1="49.3" x2="155.8" y2="64.5" stroke="rgb(0,0,0)"  stroke-width="1.0"/>
<line x1="146.9" y1="61.5" x2="147.6" y2="103.7" stroke="rgb(0,0,0)"  stroke-width="1.0"/>
<line x1="147.6" y1="103.7" x2="184.1" y2="124.2" stroke="rgb(0,0,0)"  stroke-width="1.0"/>
<line x1="156.3" y1="100.3" x2="182.3" y2="114.9" stroke="rgb(0,0,0)"  stroke-width="1.0"/>
<line x1="184.1" y1="124.2" x2="220.1" y2="102.0" stroke="rgb(0,0,0)"  stroke-width="1.0"/>
<line x1="220.1" y1="102.0" x2="219.1" y2="60.2" stroke="rgb(0,0,0)"  stroke-width="1.0"/>
<line x1="212.8" y1="96.2" x2="212.0" y2="66.4" stroke="rgb(0,0,0)"  stroke-width="1.0"/>
<line x1="219.1" y1="60.2" x2="181.7" y2="40.0" stroke="rgb(0,0,0)"  stroke-width="1.0"/>
<text x="14.000000" y="133.839629" fill="rgb(102,102,102)"  stroke="rgb(102,102,102)" stroke-width="1" font-size="16" >H</text>
<text x="26.000000" y="137.519629" fill="rgb(102,102,102)"  stroke="rgb(102,102,102)" stroke-width="1" font-size="13" >3</text>
<text x="32.500000" y="133.839629" fill="rgb(102,102,102)"  stroke="rgb(102,102,102)" stroke-width="1" font-size="16" >C</text>
<text x="242.166374" y="50.109082" fill="rgb(255,12,12)"  stroke="rgb(255,12,12)" stroke-width="1" font-size="16" >OH</text>
<text x="105.708781" y="128.988741" fill="rgb(12,12,255)"  stroke="rgb(12,12,255)" stroke-width="1" font-size="16" >N</text>
<text x="105.708781" y="144.988741" fill="rgb(12,12,255)"  stroke="rgb(12,12,255)" stroke-width="1" font-size="16" >H</text>
<text x="68.167125" y="79.425319" fill="rgb(255,12,12)"  stroke="rgb(255,12,12)" stroke-width="1" font-size="16" >O</text>


</svg>
