<?xml version="1.0"?>
<svg xmlns="http://www.w3.org/2000/svg"
xmlns:xlink="http://www.w3.org/1999/xlink" xmlns:cml="http://www.xml-cml.org/schema" width="299.2" height="156.614" x="0" y="0" font-family="sans-serif" stroke="rgb(0,0,0)" stroke-width="1"  stroke-linecap="round">
<rect x="0%" y="0%" width="100%" height="100%" stroke-width="0" fill="rgb(255,255,255)"  />
<line x1="79.0" y1="77.1" x2="53.0" y2="77.0" stroke="rgb(0,0,0)"  stroke-width="1.0"/>
<line x1="79.0" y1="77.1" x2="79.2" y2="53.0" stroke="rgb(0,0,0)"  stroke-width="1.0"/>
<line x1="126.1" y1="77.6" x2="79.0" y2="77.1" stroke="rgb(0,0,0)"  stroke-width="1.0"/>
<line x1="126.1" y1="77.6" x2="126.1" y2="102.4" stroke="rgb(0,0,0)"  stroke-width="1.0"/>
<line x1="219.7" y1="78.8" x2="246.2" y2="78.9" stroke="rgb(0,0,0)"  stroke-width="1.0"/>
<line x1="219.7" y1="78.8" x2="172.9" y2="78.1" stroke="rgb(0,0,0)"  stroke-width="1.0"/>
<line x1="172.9" y1="78.1" x2="126.1" y2="77.6" stroke="rgb(0,0,0)"  stroke-width="1.0"/>
<line x1="172.9" y1="78.1" x2="173.0" y2="53.7" stroke="rgb(0,0,0)"  stroke-width="1.0"/>
<line x1="219.7" y1="78.8" x2="219.6" y2="103.6" stroke="rgb(0,0,0)"  stroke-width="1.0"/>
<line x1="219.7" y1="78.8" x2="219.9" y2="54.4" stroke="rgb(0,0,0)"  stroke-width="1.0"/>
<line x1="126.1" y1="77.6" x2="126.4" y2="53.5" stroke="rgb(0,0,0)"  stroke-width="1.0"/>
<line x1="172.9" y1="78.1" x2="172.6" y2="103.1" stroke="rgb(0,0,0)"  stroke-width="1.0"/>
<line x1="79.0" y1="77.1" x2="79.0" y2="102.2" stroke="rgb(0,0,0)"  stroke-width="1.0"/>
<text x="34.000000" y="84.888041" fill="rgb(191,191,191)"  stroke="rgb(191,191,191)" stroke-width="1" font-size="16" >H</text>
<text x="73.252659" y="48.000000" fill="rgb(191,191,191)"  stroke="rgb(191,191,191)" stroke-width="1" font-size="16" >H</text>
<text x="120.072095" y="123.431314" fill="rgb(191,191,191)"  stroke="rgb(191,191,191)" stroke-width="1" font-size="16" >H</text>
<text x="253.200089" y="87.016197" fill="rgb(191,191,191)"  stroke="rgb(191,191,191)" stroke-width="1" font-size="16" >H</text>
<text x="167.127994" y="48.709385" fill="rgb(191,191,191)"  stroke="rgb(191,191,191)" stroke-width="1" font-size="16" >H</text>
<text x="213.474506" y="124.613623" fill="rgb(191,191,191)"  stroke="rgb(191,191,191)" stroke-width="1" font-size="16" >H</text>
<text x="213.947430" y="49.418771" fill="rgb(191,191,191)"  stroke="rgb(191,191,191)" stroke-width="1" font-size="16" >H</text>
<text x="120.545019" y="48.472924" fill="rgb(191,191,191)"  stroke="rgb(191,191,191)" stroke-width="1" font-size="16" >H</text>
<text x="166.418608" y="124.140700" fill="rgb(191,191,191)"  stroke="rgb(191,191,191)" stroke-width="1" font-size="16" >H</text>
<text x="73.016197" y="123.194852" fill="rgb(191,191,191)"  stroke="rgb(191,191,191)" stroke-width="1" font-size="16" >H</text>


</svg>
