<?xml version="1.0"?>
<svg xmlns="http://www.w3.org/2000/svg"
xmlns:xlink="http://www.w3.org/1999/xlink" xmlns:cml="http://www.xml-cml.org/schema" width="205.545" height="198.83" x="0" y="0" font-family="sans-serif" stroke="rgb(0,0,0)" stroke-width="1"  stroke-linecap="round">
<rect x="0%" y="0%" width="100%" height="100%" stroke-width="0" fill="rgb(255,255,255)"  />
<line x1="75.0" y1="75.5" x2="75.6" y2="53.0" stroke="rgb(0,0,0)"  stroke-width="1.0"/>
<line x1="124.4" y1="90.1" x2="111.9" y2="97.1" stroke="rgb(0,0,0)"  stroke-width="1.0"/>
<line x1="160.1" y1="56.3" x2="146.0" y2="75.2" stroke="rgb(0,0,0)"  stroke-width="1.0"/>
<line x1="155.3" y1="52.7" x2="141.2" y2="71.6" stroke="rgb(0,0,0)"  stroke-width="1.0"/>
<line x1="153.3" y1="103.5" x2="144.4" y2="93.5" stroke="rgb(0,0,0)"  stroke-width="1.0"/>
<line x1="75.0" y1="75.5" x2="40.5" y2="97.1" stroke="rgb(0,0,0)"  stroke-width="1.0"/>
<line x1="40.5" y1="97.1" x2="40.0" y2="139.0" stroke="rgb(0,0,0)"  stroke-width="1.0"/>
<line x1="47.6" y1="103.2" x2="47.3" y2="133.1" stroke="rgb(0,0,0)"  stroke-width="1.0"/>
<line x1="40.0" y1="139.0" x2="74.5" y2="158.8" stroke="rgb(0,0,0)"  stroke-width="1.0"/>
<line x1="74.5" y1="158.8" x2="110.5" y2="139.0" stroke="rgb(0,0,0)"  stroke-width="1.0"/>
<line x1="76.3" y1="149.6" x2="101.7" y2="135.6" stroke="rgb(0,0,0)"  stroke-width="1.0"/>
<line x1="110.5" y1="139.0" x2="111.9" y2="97.1" stroke="rgb(0,0,0)"  stroke-width="1.0"/>
<line x1="111.9" y1="97.1" x2="75.0" y2="75.5" stroke="rgb(0,0,0)"  stroke-width="1.0"/>
<line x1="103.0" y1="100.3" x2="76.5" y2="84.7" stroke="rgb(0,0,0)"  stroke-width="1.0"/>
<text x="71.925361" y="48.000000" fill="rgb(102,102,102)"  stroke="rgb(102,102,102)" stroke-width="1" font-size="16" >CH</text>
<text x="95.925361" y="51.680000" fill="rgb(102,102,102)"  stroke="rgb(102,102,102)" stroke-width="1" font-size="13" >3</text>
<text x="139.700963" y="80.479247" fill="rgb(12,12,255)"  stroke="rgb(12,12,255)" stroke-width="1" font-size="13" >+</text>
<text x="129.800963" y="91.755247" fill="rgb(12,12,255)"  stroke="rgb(12,12,255)" stroke-width="1" font-size="16" >N</text>
<text x="159.545320" y="52.145234" fill="rgb(255,12,12)"  stroke="rgb(255,12,12)" stroke-width="1" font-size="16" >O</text>
<text x="166.660667" y="99.157313" fill="rgb(255,12,12)"  stroke="rgb(255,12,12)" stroke-width="1" font-size="16" >_</text>
<text x="155.860667" y="121.269313" fill="rgb(255,12,12)"  stroke="rgb(255,12,12)" stroke-width="1" font-size="16" >O</text>


</svg>
